<svg width="28" height="28" viewBox="0 0 28 28" fill="none" xmlns="http://www.w3.org/2000/svg">
<path d="M14 2.625C11.7502 2.625 9.551 3.29213 7.68039 4.54203C5.80978 5.79193 4.35181 7.56847 3.49087 9.64698C2.62992 11.7255 2.40466 14.0126 2.84356 16.2192C3.28247 18.4257 4.36584 20.4525 5.95666 22.0433C7.54748 23.6342 9.57431 24.7175 11.7808 25.1564C13.9874 25.5953 16.2745 25.3701 18.353 24.5091C20.4315 23.6482 22.2081 22.1902 23.458 20.3196C24.7079 18.449 25.375 16.2498 25.375 14C25.3718 10.9841 24.1724 8.09271 22.0398 5.96018C19.9073 3.82764 17.0159 2.62818 14 2.625ZM23.5845 13.125H19.2281C19.0739 10.0122 18.1048 7.05797 16.4806 4.70312C18.3829 5.21383 20.0832 6.29458 21.3532 7.80013C22.6231 9.30567 23.4018 11.1639 23.5845 13.125ZM14 23.613C11.9514 21.3959 10.7089 18.2536 10.5252 14.875H17.4748C17.2911 18.2514 16.0486 21.3959 14 23.613ZM10.5252 13.125C10.7089 9.74859 11.947 6.60406 14 4.38703C16.0486 6.60406 17.2911 9.74641 17.4748 13.125H10.5252ZM11.5194 4.70312C9.89515 7.05797 8.92609 10.0122 8.77187 13.125H4.41547C4.59821 11.1639 5.37688 9.30567 6.64682 7.80013C7.91676 6.29458 9.61711 5.21383 11.5194 4.70312ZM4.41547 14.875H8.77187C8.92609 17.9878 9.89515 20.942 11.5194 23.2969C9.61711 22.7862 7.91676 21.7054 6.64682 20.1999C5.37688 18.6943 4.59821 16.8361 4.41547 14.875ZM16.4806 23.2969C18.1048 20.9387 19.0739 17.9845 19.2281 14.875H23.5845C23.4018 16.8361 22.6231 18.6943 21.3532 20.1999C20.0832 21.7054 18.3829 22.7862 16.4806 23.2969Z" fill="#878787"/>
</svg>
